<?xml version="1.0" encoding="utf-8"?>
<!-- Generator: Adobe Illustrator 16.0.3, SVG Export Plug-In . SVG Version: 6.00 Build 0)  -->
<!DOCTYPE svg PUBLIC "-//W3C//DTD SVG 1.1//EN" "http://www.w3.org/Graphics/SVG/1.1/DTD/svg11.dtd">
<svg version="1.1" id="Ebene_1" xmlns="http://www.w3.org/2000/svg" xmlns:xlink="http://www.w3.org/1999/xlink" x="0px" y="0px"
	 width="1185.653px" height="1426.887px" viewBox="0 0 1185.653 1426.887" enable-background="new 0 0 1185.653 1426.887"
	 xml:space="preserve">
<g>
	<g>
		<path d="M1142.288,7.446c-19.35,22.138-40.15,42.989-63,61.524c-1.506,1.221-9.893,7.722-3.349,2.701
			c-2.39,1.833-4.811,3.624-7.243,5.4c-5.081,3.711-10.277,7.264-15.545,10.706c-9.502,6.211-19.34,11.902-29.409,17.14
			c-4.588,2.386-9.243,4.64-13.936,6.814c-2.297,1.064-4.612,2.091-6.933,3.105c-1.664,0.727-6.196,2.622,1.48-0.604
			c-1.528,0.642-3.064,1.266-4.603,1.887c-9.399,3.797-18.974,7.151-28.635,10.217c-18.788,5.961-37.966,10.599-57.185,14.934
			c-40.188,9.065-80.522,17.312-119.33,31.443c-52.863,19.249-100.392,47.699-144.344,82.626
			c-21.093,16.761-40.958,35.031-59.97,54.105c12.021,0,24.042,0,36.062,0c-45.82-46.642-99.147-85.77-159.079-112.226
			c-49.44-21.826-101.295-35.168-153.801-47.25c-24.152-5.557-48.315-11.092-72.184-17.785c-11.933-3.347-23.77-7.035-35.473-11.111
			c-5.668-1.975-11.291-4.076-16.879-6.264c-2.815-1.102-5.613-2.247-8.404-3.407c7.095,2.949,1.974,0.825,0.502,0.188
			c-1.867-0.808-3.724-1.641-5.579-2.476c-24.332-10.965-47.399-24.577-68.82-40.489c-1.368-1.016-2.722-2.051-4.075-3.086
			c5.588,4.272,0.798,0.583-0.264-0.26c-2.741-2.177-5.436-4.411-8.116-6.662c-6-5.042-11.811-10.308-17.5-15.697
			C64.891,31.757,53.849,19.823,43.351,7.446c-9-10.609-26.841-9.222-36.063,0c-10.426,10.426-8.982,25.473,0,36.063
			c38.482,45.367,85.563,83.246,139.64,108.369c46.971,21.821,96.884,34.36,147.149,45.929
			c24.648,5.673,49.304,11.329,73.684,18.083c12.586,3.486,25.077,7.311,37.446,11.503c6.078,2.06,12.113,4.244,18.116,6.509
			c3.044,1.149,6.071,2.339,9.093,3.544c1.522,0.607,3.039,1.229,4.555,1.85c1.015,0.417,2.028,0.839,3.04,1.263
			c-3.555-1.504-4.064-1.713-1.527-0.629c26.91,11.554,52.641,25.714,76.909,42.094c6.346,4.283,12.56,8.759,18.691,13.342
			c0.833,0.623,6.106,4.66,1.09,0.783c1.574,1.217,3.134,2.452,4.694,3.688c3.706,2.935,7.353,5.945,10.975,8.982
			c13.767,11.542,26.857,23.876,39.444,36.688c9.726,9.9,26.319,9.775,36.062,0c12.588-12.629,25.553-24.864,38.981-36.596
			c5.908-5.162,11.931-10.192,18.025-15.131c2.927-2.371,5.886-4.701,8.856-7.015c-5.256,4.095-0.273,0.235,0.687-0.493
			c1.923-1.458,3.862-2.895,5.804-4.328c21.809-16.096,44.912-30.427,69.128-42.611c5.194-2.614,10.454-5.098,15.749-7.502
			c2.575-1.17,5.169-2.302,7.767-3.422c4.826-2.08-5.778,2.412-0.951,0.403c1.698-0.707,3.404-1.395,5.11-2.08
			c10.296-4.134,20.763-7.837,31.322-11.236c19.729-6.351,39.845-11.398,60.039-16.018c38.615-8.833,77.626-16.245,114.965-29.786
			c47.196-17.116,89.299-43.007,127.027-76.056c17.679-15.485,34.032-32.443,49.49-50.128c9.139-10.456,10.317-25.745,0-36.063
			C1169.019-1.885,1151.441-3.026,1142.288,7.446L1142.288,7.446z"/>
	</g>
</g>
<g>
	<g>
		<path d="M1142.288,361.446c-19.35,22.138-40.15,42.989-63,61.525c-1.506,1.221-9.893,7.721-3.349,2.701
			c-2.39,1.833-4.811,3.624-7.243,5.4c-5.081,3.711-10.277,7.264-15.545,10.707c-9.502,6.211-19.34,11.902-29.409,17.14
			c-4.588,2.386-9.243,4.64-13.936,6.814c-2.297,1.065-4.612,2.091-6.933,3.105c-1.664,0.727-6.196,2.622,1.48-0.604
			c-1.528,0.643-3.064,1.266-4.603,1.887c-9.399,3.797-18.974,7.151-28.635,10.217c-18.788,5.962-37.966,10.599-57.185,14.934
			c-40.188,9.065-80.522,17.312-119.331,31.443c-52.863,19.249-100.391,47.699-144.343,82.626
			c-21.093,16.762-40.959,35.031-59.971,54.105c12.021,0,24.042,0,36.063,0c-45.82-46.642-99.148-85.77-159.079-112.226
			c-49.44-21.826-101.295-35.168-153.801-47.249c-24.151-5.557-48.315-11.092-72.183-17.786
			c-11.933-3.346-23.77-7.034-35.473-11.111c-5.668-1.974-11.291-4.076-16.879-6.264c-2.815-1.102-5.613-2.247-8.404-3.407
			c7.095,2.949,1.974,0.825,0.502,0.188c-1.867-0.808-3.724-1.64-5.579-2.476c-24.332-10.965-47.399-24.577-68.82-40.489
			c-1.368-1.016-2.722-2.051-4.075-3.086c5.588,4.272,0.798,0.583-0.264-0.26c-2.741-2.177-5.436-4.411-8.116-6.663
			c-6-5.042-11.811-10.308-17.5-15.697c-11.788-11.164-22.83-23.098-33.329-35.475c-9-10.609-26.841-9.222-36.063,0
			c-10.426,10.426-8.982,25.473,0,36.063c38.482,45.367,85.563,83.246,139.64,108.369c46.971,21.821,96.884,34.36,147.149,45.929
			c24.648,5.673,49.304,11.329,73.684,18.083c12.586,3.487,25.078,7.311,37.447,11.503c6.078,2.06,12.112,4.244,18.116,6.509
			c3.043,1.149,6.071,2.339,9.092,3.544c1.522,0.607,3.039,1.229,4.555,1.85c1.015,0.418,2.028,0.84,3.04,1.264
			c-3.555-1.504-4.064-1.713-1.527-0.629c26.91,11.554,52.64,25.714,76.909,42.094c6.346,4.283,12.56,8.759,18.691,13.343
			c0.833,0.622,6.106,4.659,1.089,0.782c1.575,1.217,3.134,2.453,4.694,3.688c3.706,2.936,7.353,5.945,10.975,8.982
			c13.767,11.543,26.857,23.876,39.444,36.688c9.726,9.9,26.319,9.775,36.063,0c12.588-12.629,25.552-24.863,38.98-36.596
			c5.908-5.162,11.931-10.192,18.026-15.132c2.926-2.37,5.886-4.7,8.856-7.015c-5.257,4.095-0.273,0.235,0.687-0.493
			c1.923-1.458,3.861-2.895,5.804-4.328c21.808-16.096,44.912-30.427,69.127-42.61c5.195-2.614,10.455-5.099,15.749-7.503
			c2.576-1.17,5.169-2.302,7.768-3.422c4.825-2.08-5.778,2.412-0.951,0.403c1.698-0.707,3.403-1.395,5.11-2.08
			c10.296-4.135,20.762-7.837,31.322-11.237c19.729-6.351,39.845-11.398,60.039-16.017c38.615-8.833,77.626-16.245,114.965-29.786
			c47.196-17.116,89.299-43.008,127.027-76.057c17.679-15.485,34.032-32.443,49.49-50.128c9.139-10.456,10.317-25.745,0-36.063
			C1169.019,352.115,1151.441,350.974,1142.288,361.446L1142.288,361.446z"/>
	</g>
</g>
<g>
	<g>
		<path d="M1142.288,721.446c-19.35,22.138-40.15,42.988-63,61.524c-1.506,1.222-9.893,7.722-3.349,2.701
			c-2.39,1.833-4.811,3.624-7.243,5.4c-5.081,3.711-10.277,7.264-15.545,10.706c-9.502,6.212-19.34,11.902-29.409,17.141
			c-4.588,2.386-9.243,4.64-13.936,6.814c-2.297,1.064-4.612,2.091-6.933,3.105c-1.664,0.727-6.196,2.621,1.48-0.604
			c-1.528,0.642-3.064,1.266-4.603,1.887c-9.399,3.797-18.974,7.151-28.635,10.217c-18.788,5.962-37.966,10.6-57.185,14.935
			c-40.188,9.064-80.522,17.312-119.331,31.442c-52.863,19.249-100.391,47.699-144.343,82.626
			c-21.093,16.762-40.959,35.031-59.971,54.105c12.021,0,24.042,0,36.063,0c-45.821-46.642-99.148-85.77-159.08-112.227
			c-49.44-21.825-101.295-35.168-153.8-47.249c-24.152-5.557-48.315-11.092-72.184-17.785c-11.933-3.347-23.769-7.034-35.473-11.111
			c-5.668-1.975-11.291-4.076-16.879-6.264c-2.814-1.103-5.612-2.247-8.403-3.407c7.094,2.949,1.974,0.825,0.502,0.188
			c-1.867-0.808-3.723-1.64-5.578-2.476c-24.333-10.965-47.399-24.576-68.82-40.488c-1.368-1.017-2.722-2.052-4.075-3.087
			c5.588,4.272,0.798,0.584-0.264-0.26c-2.741-2.177-5.436-4.41-8.116-6.662c-6-5.042-11.811-10.309-17.5-15.697
			c-11.788-11.163-22.83-23.098-33.329-35.475c-9-10.609-26.841-9.222-36.063,0c-10.426,10.426-8.982,25.473,0,36.063
			c38.482,45.367,85.563,83.246,139.64,108.369c46.97,21.821,96.883,34.36,147.148,45.93c24.648,5.672,49.304,11.329,73.684,18.082
			c12.586,3.487,25.078,7.312,37.447,11.504c6.078,2.06,12.112,4.243,18.116,6.509c3.043,1.148,6.071,2.339,9.092,3.544
			c1.522,0.607,3.039,1.229,4.555,1.85c1.015,0.418,2.028,0.84,3.04,1.264c-3.555-1.504-4.064-1.713-1.527-0.629
			c26.91,11.554,52.64,25.714,76.909,42.094c6.346,4.283,12.56,8.759,18.691,13.343c0.833,0.622,6.106,4.659,1.09,0.782
			c1.574,1.217,3.134,2.453,4.694,3.688c3.706,2.936,7.353,5.945,10.975,8.982c13.767,11.543,26.857,23.876,39.444,36.688
			c9.726,9.9,26.319,9.775,36.063,0c12.588-12.629,25.552-24.863,38.98-36.596c5.908-5.162,11.931-10.192,18.026-15.132
			c2.926-2.37,5.886-4.7,8.856-7.015c-5.257,4.095-0.273,0.235,0.687-0.493c1.923-1.458,3.861-2.895,5.804-4.328
			c21.808-16.096,44.912-30.427,69.127-42.61c5.195-2.614,10.455-5.099,15.749-7.503c2.576-1.17,5.169-2.303,7.768-3.422
			c4.825-2.08-5.778,2.411-0.951,0.403c1.698-0.706,3.403-1.395,5.11-2.08c10.296-4.134,20.762-7.837,31.322-11.236
			c19.729-6.351,39.845-11.398,60.039-16.018c38.615-8.832,77.626-16.244,114.965-29.786
			c47.196-17.116,89.299-43.007,127.027-76.056c17.679-15.485,34.032-32.443,49.49-50.129c9.139-10.456,10.317-25.745,0-36.063
			C1169.019,712.116,1151.441,710.974,1142.288,721.446L1142.288,721.446z"/>
	</g>
</g>
<g>
	<g>
		<path d="M1142.288,1081.446c-19.35,22.138-40.15,42.988-63,61.524c-1.506,1.222-9.893,7.722-3.349,2.701
			c-2.39,1.833-4.811,3.624-7.243,5.4c-5.081,3.711-10.277,7.264-15.545,10.706c-9.502,6.212-19.34,11.902-29.409,17.141
			c-4.588,2.386-9.243,4.64-13.936,6.814c-2.297,1.064-4.612,2.091-6.933,3.105c-1.664,0.727-6.196,2.621,1.48-0.604
			c-1.528,0.642-3.064,1.266-4.603,1.887c-9.399,3.797-18.974,7.151-28.635,10.217c-18.788,5.962-37.966,10.599-57.185,14.935
			c-40.188,9.064-80.522,17.312-119.331,31.442c-52.863,19.249-100.391,47.699-144.343,82.626
			c-21.093,16.762-40.959,35.031-59.971,54.105c12.021,0,24.042,0,36.063,0c-45.821-46.642-99.148-85.77-159.08-112.227
			c-49.44-21.825-101.295-35.168-153.801-47.249c-24.151-5.557-48.315-11.092-72.183-17.785
			c-11.934-3.347-23.77-7.034-35.473-11.111c-5.668-1.975-11.291-4.076-16.88-6.264c-2.814-1.103-5.612-2.247-8.403-3.407
			c7.094,2.949,1.974,0.825,0.502,0.188c-1.867-0.808-3.724-1.64-5.579-2.476c-24.332-10.965-47.399-24.577-68.82-40.488
			c-1.368-1.017-2.722-2.052-4.075-3.087c5.588,4.272,0.798,0.584-0.263-0.26c-2.741-2.177-5.437-4.41-8.116-6.662
			c-6-5.042-11.81-10.309-17.5-15.697c-11.788-11.163-22.83-23.098-33.329-35.475c-9-10.609-26.841-9.222-36.063,0
			c-10.426,10.426-8.982,25.473,0,36.063c38.482,45.367,85.562,83.246,139.64,108.369c46.971,21.821,96.884,34.36,147.148,45.93
			c24.648,5.672,49.304,11.329,73.684,18.082c12.586,3.487,25.077,7.312,37.446,11.504c6.078,2.06,12.113,4.243,18.117,6.509
			c3.043,1.148,6.071,2.339,9.092,3.544c1.522,0.607,3.039,1.229,4.555,1.85c1.015,0.418,2.028,0.84,3.04,1.264
			c-3.555-1.504-4.064-1.713-1.527-0.629c26.91,11.554,52.641,25.714,76.909,42.094c6.346,4.283,12.56,8.76,18.691,13.342
			c0.833,0.623,6.106,4.66,1.09,0.783c1.574,1.217,3.134,2.453,4.694,3.688c3.706,2.936,7.353,5.945,10.975,8.982
			c13.767,11.543,26.857,23.876,39.444,36.688c9.726,9.9,26.319,9.775,36.063,0c12.588-12.629,25.552-24.863,38.98-36.596
			c5.908-5.162,11.931-10.192,18.026-15.131c2.926-2.371,5.886-4.701,8.856-7.016c-5.257,4.096-0.273,0.235,0.687-0.493
			c1.923-1.458,3.861-2.895,5.804-4.328c21.808-16.096,44.912-30.427,69.127-42.61c5.195-2.614,10.455-5.099,15.749-7.503
			c2.576-1.17,5.169-2.303,7.768-3.422c4.825-2.08-5.778,2.411-0.951,0.403c1.698-0.706,3.403-1.395,5.11-2.08
			c10.296-4.134,20.762-7.837,31.322-11.236c19.729-6.351,39.845-11.398,60.039-16.018c38.615-8.832,77.626-16.244,114.965-29.786
			c47.196-17.116,89.299-43.007,127.027-76.056c17.679-15.485,34.032-32.443,49.49-50.129c9.139-10.456,10.317-25.745,0-36.063
			C1169.019,1072.116,1151.441,1070.974,1142.288,1081.446L1142.288,1081.446z"/>
	</g>
</g>
<g>
</g>
<g>
</g>
<g>
</g>
<g>
</g>
<g>
</g>
<g>
</g>
<g>
</g>
<g>
</g>
<g>
</g>
<g>
</g>
<g>
</g>
<g>
</g>
<g>
</g>
<g>
</g>
<g>
</g>
</svg>
